<svg width="782" height="777" viewBox="0 0 782 777" fill="none" xmlns="http://www.w3.org/2000/svg">
<path d="M640.768 80.3607C711.355 88.0002 762.383 151.415 754.743 222.001C750.065 265.228 724.468 301.118 689.117 320.693C719.462 347.378 736.789 387.914 732.11 431.142C727.148 476.991 698.652 514.587 659.945 533.214C693.77 559.692 713.561 602.515 708.599 648.364C700.96 718.951 637.545 769.979 566.958 762.34L127.808 714.812C57.2215 707.172 6.19262 643.758 13.8319 573.171C18.7942 527.321 47.2894 489.724 85.9968 471.096C52.1723 444.619 32.3814 401.797 37.3434 355.949C42.0218 312.722 67.618 276.83 102.969 257.255C72.6247 230.57 55.298 190.035 59.9762 146.808C67.6156 76.222 131.031 25.1931 201.617 32.8324L640.768 80.3607Z" fill="#FFDCE6"/>
<path d="M117.636 51.1787C118.236 51.9784 120.061 49.5794 120.395 49.2018C128.493 40.4497 137.059 26.3887 145.67 18.8362C153.191 12.2389 164.048 17.3924 164.249 26.9219C164.315 29.743 158.864 37.873 157.084 40.8052C152.278 48.7575 146.293 56.4433 141.754 64.4845C141.398 65.1286 139.93 67.7942 140.241 68.1052L176.975 58.5535C190.103 53.2668 200.76 68.705 188.79 77.4126L148.718 93.8503L188.812 110.288C198.001 115.886 193.818 130.569 183.005 130.258L140.241 119.618C139.974 120.751 140.464 121.261 140.931 122.106C147.339 133.923 157.173 145.407 163.381 157.58C166.518 166.088 158.753 173.596 150.076 171.552C143.045 169.886 135.524 154.759 129.65 150.339L117.613 135.856L114.61 179.816C112.407 188.323 100.481 191.078 95.3636 183.836C92.1152 179.238 93.6059 171.863 92.1597 166.554L90.7357 136.566C89.5564 136.3 89.3117 136.944 88.622 137.633C80.0336 146.429 72.2017 159.779 63.6133 168.065C58.9186 172.596 51.7097 173.774 47.0151 168.553C42.3204 163.333 43.9891 158.78 47.0373 153.271C53.1782 142.186 61.7443 131.391 68.1078 120.329C66.8618 120.262 65.6158 120.262 64.3921 120.484C52.5997 122.594 38.9162 128.547 27.3018 130.036C17.0892 131.346 10.3031 121.484 16.177 113.287C20.6269 107.067 42.4316 102.447 49.7963 98.1597L59.6306 93.5172L19.4032 77.5681C9.92485 71.6371 14.486 57.2874 25.3216 57.4873L68.13 68.083L46.9038 33.3193C38.0262 23.2567 51.5985 9.6844 62.1671 18.6363C70.4885 25.6779 79.7666 40.472 87.5762 49.024C88.4662 50.0236 89.5787 51.2231 90.7579 51.8451C90.2239 44.8479 91.7147 37.9396 92.1819 31.0091C92.6269 24.5673 91.8482 9.75104 94.7184 4.59757C98.7901 -2.68837 112.14 -0.977956 114.476 7.35201L117.636 51.1343V51.1787Z" fill="#EFB8B9"/>
<path d="M619.526 580H780.962C781.955 580.068 781.617 581.061 781.707 581.761C784.756 606.395 763.484 638.345 742.438 650.177L731.463 656.048H781.684V670.047C781.684 670.679 778.907 680.434 778.433 681.879C760.909 735.573 693.978 755.443 649.289 720.648C630.14 705.745 617.833 680.547 618.081 656.07H667.602C661.099 651.419 653.602 648.145 647.347 643.132C631.653 630.578 619.797 607.547 618.058 587.587C617.855 585.148 618.262 582.484 618.081 580.023C618.555 580 619.029 580.045 619.504 580.023L619.526 580Z" fill="#D1C826"/>
</svg>
