<svg width="1920" height="1080" viewBox="0 0 1920 1080" fill="none" xmlns="http://www.w3.org/2000/svg">
<g clip-path="url(#clip0_1181_320)">
<rect width="1920" height="1080" fill="#EFB8B9"/>
<path d="M629.326 431.563C643.68 407.263 666.217 385.984 688 368.357C693.288 364.076 702.101 360.928 705.123 358.284C714.441 350.1 684.348 335.998 677.675 329.829C593.442 252.395 567.757 146.632 636.377 48.5489C766.063 -137.04 1147.31 -137.796 1281.41 42.1276C1354.31 139.959 1330.89 258.439 1240.61 333.606C1235.2 338.139 1205.61 351.359 1211.78 357.78C1229.41 361.81 1245.9 378.43 1257.99 391.524C1359.72 501.19 1340.58 632.387 1223.49 719.642L1219.46 731.603C1325.6 799.468 1359.72 929.154 1283.55 1034.92C1158.02 1209.3 804.339 1213.58 661.433 1060.35C584.125 977.503 575.06 866.829 649.598 777.938C656.145 770.131 701.976 731.981 702.479 727.952C703.738 719.39 680.823 708.814 673.52 702.015C591.428 625.588 570.401 530.905 629.326 431.437L629.326 431.563Z" fill="#FFD7E0"/>
<path d="M1414.58 432.305C1428.94 408.005 1451.48 386.726 1473.26 369.099C1478.55 364.818 1487.36 361.67 1490.38 359.026C1499.7 350.842 1469.61 336.74 1462.93 330.571C1378.7 253.137 1353.01 147.374 1421.64 49.2911C1551.32 -136.298 1932.57 -137.054 2066.67 42.8698C2139.57 140.701 2116.15 259.181 2025.87 334.348C2020.46 338.881 1990.87 352.101 1997.04 358.523C2014.66 362.552 2031.16 379.172 2043.25 392.266C2144.98 501.933 2125.84 633.129 2008.75 720.384L2004.72 732.345C2110.86 800.21 2144.98 929.896 2068.81 1035.66C1943.27 1210.04 1589.6 1214.32 1446.69 1061.09C1369.38 978.245 1360.32 867.571 1434.86 778.68C1441.4 770.874 1487.23 732.723 1487.74 728.694C1489 720.132 1466.08 709.556 1458.78 702.757C1376.69 626.33 1355.66 531.647 1414.58 432.179L1414.58 432.305Z" fill="#FFD7E0"/>
<path d="M-156.416 411.305C-142.062 387.005 -119.525 365.726 -97.7425 348.099C-92.4543 343.818 -83.6407 340.67 -80.6189 338.026C-71.3017 329.842 -101.394 315.74 -108.067 309.571C-192.3 232.137 -217.985 126.374 -149.365 28.2911C-19.679 -157.298 361.572 -158.054 495.665 21.8698C568.566 119.701 545.147 238.181 454.871 313.348C449.456 317.881 419.868 331.101 426.038 337.523C443.665 341.552 460.159 358.172 472.246 371.266C573.98 480.933 554.842 612.129 437.747 699.384L433.718 711.345C539.859 779.21 573.98 908.896 497.805 1014.66C372.275 1189.04 18.5971 1193.32 -124.309 1040.09C-201.617 957.245 -210.683 846.571 -136.145 757.68C-129.597 749.874 -83.7665 711.723 -83.2629 707.694C-82.0038 699.132 -104.919 688.556 -112.222 681.757C-194.314 605.33 -215.341 510.647 -156.416 411.179L-156.416 411.305Z" fill="#FFD7E0"/>
</g>
<defs>
<clipPath id="clip0_1181_320">
<rect width="1920" height="1080" fill="white"/>
</clipPath>
</defs>
</svg>
