<svg width="164" height="158" viewBox="0 0 164 158" fill="none" xmlns="http://www.w3.org/2000/svg">
<path d="M1.52626 0H162.962C163.955 0.0677385 163.617 1.06123 163.707 1.7612C166.756 26.3954 145.484 58.3454 124.438 70.1771L113.463 76.0478H163.684V90.047C163.684 90.6793 160.907 100.434 160.433 101.879C142.909 155.573 75.9777 175.443 31.2888 140.648C12.1396 125.745 -0.167354 100.547 0.0810435 76.0704H49.6024C43.0989 71.419 35.6018 68.1449 29.3467 63.1323C13.6526 50.5781 1.79724 27.547 0.0584571 7.58668C-0.144777 5.1481 0.261696 2.4837 0.0810435 0.0225327C0.555256 -4.68564e-05 1.02946 0.0451122 1.50368 0.0225327L1.52626 0Z" fill="#D1C826"/>
</svg>
