<svg width="180" height="188" viewBox="0 0 180 188" fill="none" xmlns="http://www.w3.org/2000/svg">
<path d="M103.636 51.1787C104.236 51.9784 106.061 49.5794 106.395 49.2018C114.493 40.4497 123.059 26.3887 131.67 18.8362C139.191 12.2389 150.048 17.3924 150.249 26.9219C150.315 29.743 144.864 37.873 143.084 40.8052C138.278 48.7575 132.293 56.4433 127.754 64.4845C127.398 65.1286 125.93 67.7942 126.241 68.1052L162.975 58.5535C176.103 53.2668 186.76 68.705 174.79 77.4126L134.718 93.8503L174.812 110.288C184.001 115.886 179.818 130.569 169.005 130.258L126.241 119.618C125.974 120.751 126.464 121.261 126.931 122.106C133.339 133.923 143.173 145.407 149.381 157.58C152.518 166.088 144.753 173.596 136.076 171.552C129.045 169.886 121.524 154.759 115.65 150.339L103.613 135.856L100.61 179.816C98.4069 188.323 86.481 191.078 81.3636 183.836C78.1152 179.238 79.6059 171.863 78.1597 166.554L76.7357 136.566C75.5564 136.3 75.3117 136.944 74.622 137.633C66.0336 146.429 58.2017 159.779 49.6133 168.065C44.9186 172.596 37.7097 173.774 33.0151 168.553C28.3204 163.333 29.9891 158.78 33.0373 153.271C39.1782 142.186 47.7443 131.391 54.1078 120.329C52.8618 120.262 51.6158 120.262 50.3921 120.484C38.5997 122.594 24.9162 128.547 13.3018 130.036C3.08925 131.346 -3.6969 121.484 2.17701 113.287C6.62695 107.067 28.4316 102.447 35.7963 98.1597L45.6306 93.5172L5.40321 77.5681C-4.07515 71.6371 0.486036 57.2874 11.3216 57.4873L54.13 68.083L32.9038 33.3193C24.0262 23.2567 37.5985 9.6844 48.1671 18.6363C56.4885 25.6779 65.7666 40.472 73.5762 49.024C74.4662 50.0236 75.5787 51.2231 76.7579 51.8451C76.2239 44.8479 77.7147 37.9396 78.1819 31.0091C78.6269 24.5673 77.8482 9.75104 80.7184 4.59757C84.7901 -2.68837 98.1399 -0.977956 100.476 7.35201L103.636 51.1343V51.1787Z" fill="#EFB8B9"/>
</svg>
