<svg width="567" height="231" viewBox="0 0 567 231" fill="none" xmlns="http://www.w3.org/2000/svg">
<path d="M120.445 62.7516C122.226 63.2522 123.492 67.4193 122.653 68.6267C122.3 69.1273 117.222 68.9801 116.707 71.1004C117.693 80.7598 111.939 118.057 116.634 124.006C118.032 125.773 123.109 126.98 124.125 126.067C124.625 125.626 121.579 117.13 121.343 114.877C120.342 104.893 126.789 77.432 134.368 70.8059C139.71 66.1382 144.449 69.2157 148.217 68.6267C149.601 68.4058 149.291 65.5345 151.587 64.5333C157.151 62.089 169.616 63.2522 175.385 65.2253C187.027 69.201 174.502 71.3508 173.354 73.0146C171.485 75.724 172.177 123.638 174.914 127.54C177.652 131.442 179.653 125.007 182.994 126.715C191.059 130.823 180.801 143.634 173.428 143.634C169.086 143.634 164.789 138.024 161.669 137.921C158.814 137.832 155.576 141.278 152.5 141.94C137.547 145.165 131.866 135.094 128.098 135.182C125.861 135.226 122.521 137.847 118.93 137.935C115.339 138.024 112.292 135.874 109.054 136.64C106.788 137.17 103.874 140.645 100.871 141.823C93.5863 144.694 86.3307 144.414 79.4577 140.571C76.4407 140.35 70.5096 128.438 68.2284 130.485C67.5514 131.088 65.1672 140.983 65.2113 142.927C65.3585 148.817 69.0673 156.974 69.656 163.63C71.0394 179.208 71.9224 209.865 61.5909 221.777C34.3344 253.2 10.4334 195.067 26.7402 173.657L41.7077 148.154C22.0601 152.439 2.28001 142.353 0.455057 120.958C-1.17857 101.89 1.36753 85.0004 11.6697 68.7592C22.3692 51.8995 24.6945 58.9379 39.8681 60.9404C44.4893 61.5589 48.934 57.8777 54.9092 62.0742C63.7249 68.2733 55.6598 94.7334 57.8527 104.776L60.8403 121.635C61.3554 117.306 65.903 114.671 66.6831 110.533C67.8016 104.555 67.6103 80.2886 66.8597 73.7361C66.4329 70.0108 60.752 70.6881 60.8697 66.4475C61.6497 63.1344 81.0619 61.073 83.9759 62.3246C92.2471 65.9026 83.2548 68.1555 82.9016 69.6574C80.7381 79.0222 80.3113 108.133 81.5917 117.836C83.7552 134.063 94.4547 132.414 96.1913 116.496C97.4717 104.761 98.1046 87.0472 97.7219 75.1939C97.5747 70.7765 96.2207 67.0512 96.1766 62.7516C102.696 63.9148 114.823 61.1613 120.46 62.7516H120.445ZM41.5017 77.697C31.0818 70.1139 20.5737 90.0657 18.7929 97.9875C16.5411 108.015 15.4079 135.962 31.4498 132.855C51.3918 128.998 39.662 91.1406 41.5017 77.697ZM155.031 123.859C156.915 115.127 155.031 91.759 155.031 81.1573C155.031 80.9365 153.398 77.4173 152.691 77.4173C136.384 79.6996 137.635 124.492 146.171 129.866C149.144 131.736 154.472 126.435 155.031 123.859ZM53.4816 156.989C50.0378 156.253 51.1121 157.416 50.1849 158.874C40.5451 173.981 31.9943 206.626 52.6869 215.917C57.3817 210.13 53.5846 203.578 53.4227 197.526C53.0695 184.038 53.8201 170.462 53.4816 156.974V156.989Z" fill="#5BC6E4"/>
<path d="M436.015 1.0549C437.074 6.45882 431.143 17.2372 433.88 21.5957C436.618 25.9542 451.026 13.291 451.026 28.1482C451.026 44.4777 434.764 31.5937 433.203 39.9278C434.16 60.2036 431.879 81.6132 433.203 101.756C433.719 109.472 434.646 129.218 445.61 127.583C454.779 126.214 447.288 115.112 446.596 108.986C445.389 98.1636 451.865 66.8886 462.653 62.0589C466.891 60.1594 471.366 62.2209 474.854 61.3227C476.355 60.9398 476.252 58.3336 477.326 57.6415C480.608 55.5065 506.496 57.244 508.188 59.8944C511.205 64.6063 504.126 64.6799 502.316 66.3879C498.931 69.5979 502.566 73.3379 502.419 76.8129C502.287 80.0082 500.933 82.85 500.888 85.5888C500.8 90.5363 501.124 119.087 503.744 120.987C510.69 126.052 506.525 115.995 506.702 112.137C507.114 103.244 513.222 96.8678 522.273 97.9869C534.635 99.5183 519.58 123.402 533.973 124.697C549.412 126.096 548.44 100.019 535.827 94.777C530.882 92.7155 526.129 94.2469 520.742 90.7277C513.192 85.795 512.898 74.7073 514.222 66.5205C515.724 57.2145 532.472 49.8964 541.405 50.9418C566.248 53.8426 566.042 87.8711 544.614 81.5837C539.36 80.0376 538.977 73.4557 537.873 69.1562C537.491 67.6837 538.491 64.4885 535.489 65.7106C531.03 67.5217 529.013 75.1932 530.235 79.5223C530.573 80.7591 548.558 86.7962 553.474 90.389C582.879 111.931 560.14 154.25 525.334 139.157C521.831 137.64 514.134 130.558 513.398 130.572C512.103 130.572 507.276 139.908 496.841 135.27C494.369 134.18 492.676 130.587 489.895 130.514C483.934 130.366 479.931 138.98 466.921 135.741C463.816 134.975 460.475 131.426 457.781 132.119C455.927 132.59 450.32 138.362 446.022 139.643C429.863 144.458 413.983 133.12 412.526 116.555C410.274 91.1252 413.644 61.8527 414.056 36.232L399.339 37.7192C400.605 34.0969 397.749 27.8978 398.206 25.3652C399.354 18.96 413.055 22.5234 414.056 21.5221C414.719 20.8448 412.629 5.88457 416.97 3.0869C419.193 1.64389 434.072 -1.6986 436 1.0549H436.015ZM475.869 71.5857C457.929 73.1171 458.591 109.016 465.861 120.633C470.085 127.377 476.369 120.427 477.267 114.95C478.062 110.105 477.606 73.0876 475.869 71.6004V71.5857Z" fill="#5BC6E4"/>
<path d="M366.74 129.277C363.223 127.245 357.527 135.683 352.685 137.538C330.638 145.99 323.294 126.907 321.381 109.119C320.837 104.128 322.485 95.6905 321.131 91.7001C320.174 88.9172 315.391 89.1528 315.377 85.5894C315.362 83.0274 319.203 81.6138 319.865 78.1977C320.984 72.4551 319.321 63.9737 319.909 57.6274C320.601 50.0737 326.223 6.28277 331.315 3.88266C344.061 -2.1397 350.904 13.9248 352.111 23.9081C355.04 48.0123 347.446 55.3157 341.205 74.5165C338.115 83.9992 339.984 104.746 342.339 114.671C345.9 129.675 351.11 125.199 355.305 113.669C361.677 96.1323 357.233 65.4609 377.307 57.6422C404.593 47.011 414.763 81.9672 394.821 98.7238C386.917 105.379 372.274 106.881 377.175 118.116C385.299 136.699 396.778 117.689 404.799 117.557C414.512 117.395 407.272 131.147 401.355 134.725C389.979 141.602 378.867 139.953 368.565 132.546C367.52 131.795 367.182 129.557 366.755 129.321L366.74 129.277ZM374.334 93.6585C376.571 96.2206 398.883 71.9839 386.579 68.7887C379.75 67.0217 373.848 88.2104 374.334 93.6585Z" fill="#5BC6E4"/>
<path d="M209.706 138.052C207.028 161.317 201.567 186.968 215.387 207.759C214.99 209.584 202.303 212.529 199.772 212.78C176.931 215.033 189.249 205.992 190.412 193.122C191.677 179.267 188.646 164.836 188.749 151.835C188.852 136.727 194.047 84.9261 188.557 74.1182C186.909 70.8935 182.523 71.2764 183.009 67.1682C205.306 65.1068 234.608 52.959 244.071 81.8928C246.205 88.4011 247.765 104.937 247.883 112.063C248.221 132.413 226.999 140.718 209.706 138.038V138.052ZM214.651 73.0581C209.309 74.8692 207.16 115.612 213.121 121.679C215.652 124.255 222.216 123.74 224.35 121.046C226.293 118.572 226.307 94.5265 225.601 90.0649C224.791 84.9702 219.052 80.6559 219.037 74.5452C218.242 72.9255 216.138 72.5574 214.651 73.0581Z" fill="#5BC6E4"/>
<path d="M313.993 61.2944C317.496 65.535 307.591 67.3609 306.826 69.5696C305.487 87.6514 305.796 105.144 308.121 123.123C327.268 116.158 321.631 139.379 305.899 137.965C300.748 137.509 297.304 132.046 294.39 132.223C287.517 132.664 285.28 140.218 271.593 136.832C244.601 130.147 249.281 87.8281 261.85 70.2027C269.473 59.5127 271.607 64.7547 280.6 62.7079C281.644 62.4723 281.483 60.2342 282.734 59.9102C287.752 58.5998 311.624 58.4083 314.008 61.2944H313.993ZM286.016 73.0446C275.713 72.485 272.299 87.8575 271.46 96.0297C270.871 101.743 272.549 124.095 279.407 124.698C286.766 125.361 287.016 113.272 287.473 107.633C288.4 96.1328 287.208 84.412 286.016 73.0446Z" fill="#5BC6E4"/>
</svg>
