<svg width="1427" height="3256" viewBox="0 0 1427 3256" fill="none" xmlns="http://www.w3.org/2000/svg">
<rect x="30.5" y="3228.5" width="3197" height="1367" transform="rotate(-90 30.5 3228.5)" stroke="#5BC6E4" stroke-width="3"/>
<mask id="path-2-inside-1_405_1223" fill="white">
<path d="M1361.9 0C1358.74 7.71075 1357 16.152 1357 25C1357 61.4508 1386.55 91 1423 91C1424.34 91 1425.68 90.958 1427 90.8789V3164.27C1425.02 3164.09 1423.02 3164 1421 3164C1384.55 3164 1355 3193.55 1355 3230C1355 3239.23 1356.9 3248.02 1360.32 3256H66.6807C70.1038 3248.02 72 3239.23 72 3230C72 3193.55 42.4508 3164 6 3164C3.97745 3164 1.97619 3164.09 0 3164.27V90.5186C2.62245 90.8354 5.29209 91 8 91C44.4508 91 74 61.4508 74 25C74 16.152 72.2588 7.71075 69.1006 0H1361.9Z"/>
</mask>
<path d="M1361.9 0L1364.68 1.13709L1366.37 -3H1361.9V0ZM1427 90.8789H1430V87.6942L1426.82 87.8843L1427 90.8789ZM1427 3164.27L1426.73 3167.26L1430 3167.55V3164.27H1427ZM1360.32 3256V3259H1364.87L1363.08 3254.82L1360.32 3256ZM66.6807 3256L63.9237 3254.82L62.1291 3259H66.6807V3256ZM0 3164.27H-3V3167.55L0.269255 3167.26L0 3164.27ZM0 90.5186L0.359877 87.5402L-3 87.1342V90.5186H0ZM69.1006 0V-3H64.6299L66.3244 1.13709L69.1006 0ZM1361.9 0L1359.12 -1.13709C1355.82 6.92829 1354 15.7554 1354 25H1357H1360C1360 16.5487 1361.66 8.49321 1364.68 1.13709L1361.9 0ZM1357 25H1354C1354 63.1076 1384.89 94 1423 94V91V88C1388.21 88 1360 59.7939 1360 25H1357ZM1423 91V94C1424.41 94 1425.8 93.9561 1427.18 93.8736L1427 90.8789L1426.82 87.8843C1425.55 87.96 1424.28 88 1423 88V91ZM1427 90.8789H1424V3164.27H1427H1430V90.8789H1427ZM1427 3164.27L1427.27 3161.28C1425.2 3161.1 1423.11 3161 1421 3161V3164V3167C1422.93 3167 1424.84 3167.09 1426.73 3167.26L1427 3164.27ZM1421 3164V3161C1382.89 3161 1352 3191.89 1352 3230H1355H1358C1358 3195.21 1386.21 3167 1421 3167V3164ZM1355 3230H1352C1352 3239.65 1353.98 3248.84 1357.56 3257.18L1360.32 3256L1363.08 3254.82C1359.81 3247.21 1358 3238.82 1358 3230H1355ZM1360.32 3256V3253H66.6807V3256V3259H1360.32V3256ZM66.6807 3256L69.4376 3257.18C73.0181 3248.84 75 3239.65 75 3230H72H69C69 3238.82 67.1895 3247.21 63.9237 3254.82L66.6807 3256ZM72 3230H75C75 3191.89 44.1076 3161 6 3161V3164V3167C40.7939 3167 69 3195.21 69 3230H72ZM6 3164V3161C3.88697 3161 1.79586 3161.1 -0.269255 3161.28L0 3164.27L0.269255 3167.26C2.15651 3167.09 4.06793 3167 6 3167V3164ZM0 3164.27H3V90.5186H0H-3V3164.27H0ZM0 90.5186L-0.359877 93.4969C2.38059 93.828 5.17041 94 8 94V91V88C5.41377 88 2.8643 87.8428 0.359877 87.5402L0 90.5186ZM8 91V94C46.1076 94 77 63.1076 77 25H74H71C71 59.7939 42.7939 88 8 88V91ZM74 25H77C77 15.7554 75.1802 6.92829 71.8767 -1.13709L69.1006 0L66.3244 1.13709C69.3374 8.49321 71 16.5487 71 25H74ZM69.1006 0V3H1361.9V0V-3H69.1006V0Z" fill="#5BC6E4" mask="url(#path-2-inside-1_405_1223)"/>
</svg>
