<svg width="339" height="210" viewBox="0 0 339 210" fill="none" xmlns="http://www.w3.org/2000/svg">
<path d="M315.007 0C315.273 12.7478 325.688 23 338.5 23C338.667 23 338.834 22.9966 339 22.9932V186.006C338.834 186.002 338.667 186 338.5 186C325.521 186 315 196.521 315 209.5C315 209.667 315.003 209.834 315.007 210H22.9932C22.9966 209.834 23 209.667 23 209.5C23 196.688 12.7478 186.272 0 186.006V22.9932C12.5816 22.7305 22.7305 12.5816 22.9932 0H315.007Z" fill="#FFD7E0"/>
<rect x="11.5" y="10.5" width="317" height="189" stroke="#EFB8B9"/>
</svg>
